<svg xmlns="http://www.w3.org/2000/svg" viewBox="0 0 653 653" fill="currentColor" fill-rule="evenodd"><path d="M203.50 581.95 C192.14 581.18 181.26 578.84 177.23 576.30 C168.77 570.97 166.59 563.65 171.50 557.00 C172.88 555.14 174.00 553.54 174.00 553.46 C174.00 552.21 164.81 545.00 163.21 545.00 C162.74 545.00 161.29 543.88 160.00 542.50 C158.71 541.12 157.17 540.00 156.58 539.99 C152.94 539.95 108.00 496.46 108.00 492.98 C108.00 492.41 107.32 491.68 106.50 491.36 C105.67 491.05 105.00 490.29 105.00 489.68 C105.00 489.07 104.10 487.65 102.99 486.54 C99.18 482.67 90.28 470.49 89.53 468.11 C89.12 466.80 87.25 463.73 85.39 461.29 C83.53 458.84 82.00 456.20 82.00 455.41 C82.00 454.63 81.10 453.21 80.00 452.27 C78.90 451.33 78.00 450.18 78.00 449.72 C78.00 449.26 76.20 445.05 74.00 440.38 C71.80 435.71 70.00 431.51 70.00 431.06 C70.00 430.61 69.34 429.69 68.53 429.02 C67.72 428.35 66.76 426.16 66.40 424.15 C66.03 422.14 65.35 420.00 64.87 419.39 C63.84 418.09 60.32 408.21 58.85 402.50 C58.28 400.30 57.20 397.15 56.45 395.50 C55.70 393.85 54.82 390.37 54.49 387.77 C54.15 385.17 53.50 382.81 53.04 382.52 C52.57 382.23 51.89 379.64 51.53 376.75 C51.16 373.86 50.25 369.25 49.50 366.50 C47.02 357.44 44.72 326.74 45.35 311.00 C46.13 291.13 47.65 275.43 49.47 268.44 C50.31 265.22 51.00 261.21 51.01 259.54 C51.01 257.87 51.66 255.26 52.44 253.76 C53.23 252.25 54.19 248.87 54.57 246.26 C54.95 243.64 55.75 240.60 56.35 239.50 C56.96 238.40 57.98 235.25 58.63 232.50 C60.19 225.92 63.79 215.81 65.02 214.58 C65.56 214.04 66.00 213.00 66.00 212.26 C66.00 209.80 78.89 183.00 80.07 183.00 C80.46 183.00 81.04 181.99 81.36 180.75 C81.68 179.51 83.53 176.10 85.47 173.16 C87.41 170.23 89.00 167.45 89.00 166.98 C89.00 166.52 89.62 165.53 90.37 164.77 C91.12 164.02 92.44 162.07 93.28 160.45 C94.13 158.83 96.10 156.03 97.66 154.23 C99.22 152.42 101.40 149.79 102.50 148.38 C103.60 146.96 105.40 144.72 106.50 143.39 C107.60 142.07 109.40 139.82 110.50 138.41 C118.35 128.31 131.96 114.02 133.75 114.01 C134.44 114.00 135.00 113.34 135.00 112.54 C135.00 111.73 135.90 110.59 137.00 110.00 C139.47 108.68 139.58 105.30 137.25 102.72 C134.85 100.07 134.89 90.29 137.31 88.52 C138.24 87.84 139.00 86.79 139.00 86.19 C139.00 84.24 147.59 77.86 153.61 75.34 C158.79 73.18 161.87 72.76 179.00 71.90 C221.10 69.79 373.84 71.17 414.28 74.03 C422.41 74.61 440.19 75.50 453.78 76.02 C483.05 77.13 509.22 79.92 510.55 82.09 C510.85 82.56 512.75 83.43 514.79 84.01 C517.33 84.74 519.84 86.70 522.75 90.24 C526.47 94.75 527.00 96.01 527.00 100.28 C527.00 104.40 526.44 105.85 523.44 109.51 L519.88 113.85 L526.19 120.24 C533.02 127.15 536.06 130.54 543.00 138.97 C545.48 141.98 548.17 145.21 549.00 146.15 C551.78 149.31 552.72 150.62 554.01 153.06 C554.72 154.40 555.90 155.86 556.65 156.30 C557.39 156.74 558.00 157.70 558.00 158.43 C558.00 159.16 558.73 160.36 559.61 161.09 C561.04 162.28 564.31 167.37 569.04 175.77 C569.88 177.27 571.71 180.30 573.10 182.50 C574.49 184.70 576.23 188.07 576.98 190.00 C577.72 191.93 578.93 194.21 579.66 195.08 C580.40 195.95 581.00 197.24 581.00 197.96 C581.00 198.68 581.84 200.67 582.86 202.38 C583.88 204.10 585.73 208.20 586.97 211.50 C588.20 214.80 589.80 218.85 590.53 220.50 C591.25 222.15 593.03 227.55 594.49 232.50 C595.95 237.45 597.53 242.23 598.00 243.11 C598.46 244.00 599.38 247.60 600.04 251.11 C600.69 254.63 601.85 259.43 602.61 261.78 C603.38 264.14 604.00 268.21 604.00 270.82 C604.00 273.44 604.75 278.26 605.67 281.54 C608.12 290.30 608.15 338.42 605.71 352.00 C604.78 357.23 604.00 363.07 604.00 365.00 C603.99 366.93 603.32 369.79 602.49 371.36 C601.67 372.94 600.99 375.41 600.98 376.86 C600.96 380.86 595.83 400.47 593.45 405.65 C592.65 407.38 592.00 409.69 592.00 410.78 C592.00 411.87 591.33 413.32 590.50 414.00 C589.67 414.68 589.00 416.05 589.00 417.04 C589.00 418.95 580.63 438.14 578.35 441.47 C577.61 442.56 577.00 444.10 577.00 444.89 C577.00 445.69 576.39 447.05 575.64 447.92 C574.89 448.79 572.93 451.98 571.27 455.00 C566.10 464.48 564.52 466.99 563.76 466.99 C563.36 467.00 562.40 468.50 561.64 470.32 C560.87 472.15 558.84 475.25 557.13 477.20 C555.41 479.16 554.00 481.15 553.99 481.63 C553.99 482.11 551.72 485.20 548.97 488.50 C546.21 491.80 542.72 496.06 541.22 497.97 C534.32 506.78 505.15 534.48 500.39 536.75 C498.53 537.64 497.00 538.68 497.00 539.05 C497.00 539.42 495.09 541.03 492.75 542.61 C490.41 544.20 487.63 546.29 486.56 547.25 C485.50 548.21 484.03 549.00 483.31 549.00 C481.50 549.00 481.65 553.98 483.57 557.85 C485.00 560.71 485.00 561.29 483.57 564.15 C482.71 565.89 482.00 567.83 482.00 568.47 C482.00 570.21 475.07 576.00 472.99 576.00 C471.99 576.00 471.02 576.45 470.83 576.99 C470.27 578.67 460.02 581.07 449.50 582.00 C437.96 583.02 218.49 582.98 203.50 581.95 Z M436.39 574.61 C459.14 573.14 464.12 572.38 469.58 569.54 C473.02 567.76 476.00 563.60 476.00 560.60 C476.00 557.16 469.54 553.05 463.18 552.45 C427.97 549.16 416.77 548.85 329.11 548.73 C240.87 548.61 225.66 549.00 197.58 552.15 C185.18 553.55 180.65 555.85 176.95 562.64 C175.98 564.42 176.12 565.12 177.79 566.79 C178.90 567.90 180.74 569.10 181.90 569.47 C183.05 569.83 184.61 570.75 185.37 571.52 C186.44 572.58 194.97 573.27 222.13 574.47 C272.17 576.70 273.34 576.72 346.50 576.42 C392.33 576.24 419.80 575.68 436.39 574.61 Z M193.50 544.48 C195.74 543.48 209.28 542.84 247.00 541.95 C312.43 540.40 454.95 542.11 460.71 544.52 C465.33 546.45 472.39 546.44 474.00 544.50 C474.68 543.67 475.83 543.00 476.55 543.00 C477.27 543.00 478.45 542.43 479.18 541.74 C479.91 541.04 483.43 538.37 487.00 535.79 C496.70 528.80 498.33 527.49 508.51 518.50 C516.61 511.35 518.71 509.24 520.72 506.25 C521.55 505.01 522.85 504.00 523.62 504.00 C524.38 504.00 525.00 503.57 525.00 503.04 C525.00 502.51 526.69 500.37 528.76 498.29 C535.24 491.75 541.17 484.09 540.54 483.07 C539.41 481.24 511.38 483.39 507.08 485.64 C505.66 486.38 503.14 486.99 501.47 486.99 C499.80 487.00 495.98 487.69 492.97 488.54 C489.63 489.48 481.03 490.31 470.89 490.67 C456.39 491.19 452.82 490.99 442.89 489.10 C432.04 487.03 417.81 483.44 402.50 478.92 C392.86 476.07 379.41 474.69 360.50 474.63 C343.72 474.58 317.01 476.26 308.50 477.91 C302.06 479.16 268.31 479.12 260.50 477.86 C257.20 477.33 249.10 476.51 242.50 476.04 C235.90 475.57 226.90 474.66 222.50 474.00 C197.99 470.34 166.69 467.52 160.68 468.42 C156.33 469.07 156.07 469.27 157.10 471.19 C158.02 472.91 157.78 473.68 155.61 475.85 L153.01 478.44 L151.42 474.40 L149.84 470.36 L144.67 471.06 C136.73 472.14 124.36 477.69 119.77 482.25 C118.79 483.21 117.58 484.00 117.07 484.00 C116.55 484.00 115.86 484.88 115.52 485.95 C114.72 488.45 116.70 490.78 135.05 509.00 C150.98 524.82 154.85 528.19 164.92 535.01 C171.16 539.24 176.00 542.73 178.60 544.89 C181.22 547.06 188.12 546.87 193.50 544.48 Z M227.17 539.88 C225.10 539.11 224.39 536.73 226.28 536.92 C226.67 536.97 227.90 537.00 229.00 537.00 C230.10 537.00 231.00 537.65 231.00 538.44 C231.00 540.48 229.86 540.90 227.17 539.88 Z M465.47 535.60 C463.67 534.28 463.66 534.16 465.44 531.45 C467.19 528.79 467.34 528.74 468.64 530.52 C470.36 532.87 470.36 534.45 468.67 535.86 C467.68 536.68 466.85 536.61 465.47 535.60 Z M388.49 531.96 C387.66 529.37 389.24 527.49 391.50 528.36 C393.61 529.17 393.09 533.37 390.84 533.80 C389.84 533.99 388.90 533.25 388.49 531.96 Z M250.26 531.34 C249.35 530.98 249.30 530.32 250.04 528.92 C251.29 526.59 253.56 526.42 254.40 528.59 C255.48 531.42 253.59 532.68 250.26 531.34 Z M198.04 527.55 C195.98 525.06 198.41 522.77 201.58 524.22 C203.90 525.28 204.99 528.00 203.08 528.00 C202.58 528.00 201.52 528.25 200.74 528.55 C199.96 528.85 198.74 528.40 198.04 527.55 Z M170.73 525.25 C168.50 522.79 168.54 521.32 170.87 520.07 C172.30 519.30 173.14 519.50 174.40 520.89 C175.94 522.59 175.93 522.87 174.25 524.94 C172.49 527.12 172.42 527.12 170.73 525.25 Z M354.67 523.33 C353.51 522.17 353.94 518.29 355.37 517.11 C356.41 516.25 357.04 516.34 358.01 517.52 C360.12 520.05 356.93 525.59 354.67 523.33 Z M305.18 519.78 C302.50 517.10 304.87 510.82 307.68 513.15 C308.40 513.75 309.00 515.26 309.00 516.50 C309.00 519.48 306.78 521.38 305.18 519.78 Z M276.00 516.04 C274.72 515.21 274.83 514.74 276.81 512.78 C279.08 510.53 279.14 510.53 280.57 512.46 C281.37 513.54 281.87 514.89 281.69 515.46 C281.22 516.88 277.83 517.23 276.00 516.04 Z M454.46 513.68 C453.53 510.01 455.35 507.92 457.55 510.12 C458.94 511.51 458.90 511.91 457.13 514.08 L455.17 516.50 L454.46 513.68 Z M235.25 512.90 C232.44 511.86 232.38 510.40 235.08 508.96 C237.74 507.53 240.00 508.40 240.00 510.86 C240.00 513.24 238.21 514.00 235.25 512.90 Z M431.22 512.82 C430.36 511.96 430.34 511.29 431.15 510.32 C432.67 508.48 436.93 508.66 437.68 510.60 C438.76 513.43 433.61 515.21 431.22 512.82 Z M359.13 507.65 C357.16 505.28 358.13 502.50 360.93 502.50 C364.05 502.50 364.52 504.13 362.24 506.95 C360.61 508.96 360.27 509.04 359.13 507.65 Z M201.98 505.95 C201.18 504.47 201.14 503.46 201.84 502.76 C203.49 501.11 206.18 502.73 205.82 505.17 C205.38 508.16 203.38 508.57 201.98 505.95 Z M435.67 501.33 C433.92 499.59 435.20 498.00 438.33 498.00 C442.29 498.00 443.39 498.83 441.87 500.66 C440.71 502.06 436.82 502.48 435.67 501.33 Z M506.75 501.31 C504.33 500.68 504.56 498.31 507.17 496.91 C508.97 495.95 509.57 496.06 510.65 497.54 C511.62 498.87 511.68 499.69 510.86 500.67 C509.71 502.05 509.63 502.06 506.75 501.31 Z M141.69 497.30 C139.36 496.70 140.00 494.83 143.08 493.27 C145.12 492.23 145.70 492.30 146.73 493.69 C147.64 494.90 147.67 495.69 146.86 496.67 C145.73 498.03 144.89 498.13 141.69 497.30 Z M244.50 493.00 C243.52 491.41 244.91 490.00 247.45 490.00 C249.70 490.00 251.50 492.17 250.26 493.40 C249.29 494.37 245.17 494.08 244.50 493.00 Z M285.00 492.97 C283.70 492.10 283.76 491.76 285.45 490.47 C287.14 489.19 287.60 489.18 288.82 490.39 C291.43 493.00 288.25 495.14 285.00 492.97 Z M128.82 487.51 C127.97 485.64 128.01 484.69 128.99 483.52 C130.64 481.52 133.00 483.28 133.00 486.52 C133.00 489.83 130.19 490.50 128.82 487.51 Z M380.67 486.19 C378.84 484.17 380.05 482.00 383.00 482.00 C385.95 482.00 387.16 484.17 385.33 486.19 C384.43 487.18 383.38 488.00 383.00 488.00 C382.62 488.00 381.57 487.18 380.67 486.19 Z M335.42 484.64 C334.47 482.17 335.39 479.55 337.33 479.17 C338.83 478.89 339.08 479.39 338.82 482.09 C338.48 485.58 336.38 487.15 335.42 484.64 Z M185.63 479.37 C183.90 477.00 183.88 476.69 185.40 475.17 C186.63 473.94 187.45 473.80 188.71 474.59 C191.15 476.13 191.29 477.43 189.28 479.82 L187.50 481.94 L185.63 479.37 Z M491.39 480.09 C492.99 479.46 497.71 478.47 501.89 477.90 C506.08 477.33 511.43 476.22 513.78 475.43 C516.76 474.44 522.74 474.00 533.31 474.00 C549.91 474.00 549.94 473.99 552.73 467.75 C553.87 465.20 553.79 465.00 551.70 465.00 C550.46 465.00 548.44 464.30 547.22 463.44 L544.99 461.88 L547.49 457.60 C550.43 452.60 550.56 451.28 548.40 448.89 C547.05 447.40 546.99 446.56 548.00 443.49 C548.66 441.49 549.78 439.64 550.49 439.37 C551.20 439.09 552.03 437.66 552.34 436.19 C552.65 434.71 554.50 431.10 556.45 428.16 C558.40 425.23 560.00 422.03 560.00 421.06 C560.00 419.35 565.45 411.00 566.57 411.00 C566.88 411.00 567.99 411.46 569.03 412.02 C570.67 412.89 571.05 412.59 571.78 409.77 C573.31 403.85 581.00 403.18 581.00 408.97 C581.00 410.64 581.45 412.00 582.00 412.00 C582.55 412.00 583.00 410.99 583.01 409.75 C583.01 408.51 584.81 401.91 587.01 395.09 C589.20 388.26 591.00 381.60 591.00 380.27 C591.00 378.95 591.52 376.89 592.16 375.69 C593.81 372.62 597.01 351.76 598.10 337.00 C599.14 322.85 598.37 286.79 596.95 283.00 C596.43 281.62 595.36 276.23 594.57 271.00 C592.52 257.46 589.99 245.93 588.38 242.85 C587.62 241.39 587.00 239.44 587.00 238.53 C587.00 237.62 586.17 234.76 585.15 232.19 C584.14 229.61 582.79 226.04 582.15 224.25 C579.48 216.72 578.54 214.27 576.69 210.00 C573.92 203.63 567.19 190.23 564.39 185.50 C563.08 183.30 561.36 180.11 560.56 178.42 C559.77 176.73 558.41 174.76 557.56 174.05 C556.70 173.34 556.00 172.14 556.00 171.38 C556.00 170.62 555.58 170.00 555.06 170.00 C554.55 170.00 553.56 168.42 552.86 166.50 C552.17 164.57 551.25 163.00 550.81 163.00 C550.38 163.00 548.80 161.09 547.30 158.75 C545.80 156.41 542.77 152.25 540.58 149.50 C538.38 146.75 536.05 143.82 535.39 143.00 C531.13 137.67 512.76 120.00 511.47 120.00 C510.61 120.00 508.46 120.75 506.70 121.67 C501.87 124.18 445.75 126.32 404.50 125.57 C386.90 125.24 348.43 124.54 319.00 124.01 C289.57 123.47 254.47 122.36 241.00 121.53 C227.53 120.71 210.65 120.01 203.50 119.98 C196.35 119.96 187.35 119.50 183.50 118.98 C179.65 118.45 171.78 117.53 166.00 116.93 C160.22 116.33 154.50 115.20 153.29 114.42 C150.91 112.90 147.00 112.50 147.00 113.77 C147.00 114.20 143.56 117.46 139.35 121.02 C131.07 128.04 131.16 127.96 126.00 134.00 C124.08 136.25 120.78 139.99 118.67 142.30 C116.56 144.61 113.44 148.41 111.75 150.75 C110.05 153.09 108.29 155.00 107.83 155.00 C107.37 155.00 107.00 155.52 107.00 156.16 C107.00 156.79 105.88 158.79 104.50 160.59 C103.13 162.39 102.00 164.19 102.00 164.58 C102.00 164.97 100.50 167.14 98.66 169.40 C95.61 173.14 92.31 178.46 88.06 186.50 C87.18 188.15 85.69 190.61 84.73 191.97 C83.78 193.33 83.00 195.19 83.00 196.10 C83.00 197.01 82.32 198.32 81.50 199.00 C80.67 199.68 80.00 201.03 80.00 201.99 C80.00 202.95 79.10 204.87 78.00 206.27 C76.90 207.67 76.00 209.64 75.99 210.66 C75.99 211.67 75.09 213.85 74.00 215.50 C72.91 217.15 72.01 219.18 72.00 220.00 C71.99 220.82 71.33 222.76 70.53 224.29 C69.73 225.83 68.77 228.75 68.41 230.79 C68.04 232.83 67.24 235.40 66.64 236.50 C65.54 238.50 63.22 247.52 60.52 260.27 C59.74 264.00 58.76 267.58 58.35 268.24 C57.53 269.57 55.28 292.70 54.34 309.50 C53.68 321.19 56.35 358.99 58.21 364.50 C58.77 366.15 59.83 370.65 60.56 374.50 C62.48 384.62 64.97 394.12 66.45 397.00 C67.15 398.38 68.03 401.47 68.40 403.88 C68.76 406.28 69.72 409.20 70.53 410.35 C71.34 411.50 72.00 413.03 72.00 413.74 C72.00 414.97 77.97 428.20 82.11 436.14 C83.15 438.14 84.00 440.45 84.00 441.28 C84.00 442.11 84.63 443.03 85.41 443.33 C86.18 443.62 87.11 445.25 87.49 446.93 C87.86 448.62 88.50 450.00 88.92 450.00 C89.34 450.00 90.23 451.22 90.91 452.70 C91.59 454.19 94.58 459.07 97.57 463.56 C100.56 468.05 103.00 472.24 103.00 472.86 C103.00 473.49 103.46 474.00 104.02 474.00 C104.58 474.00 105.53 475.07 106.13 476.38 C107.35 479.07 110.10 478.93 113.50 476.00 C116.21 473.67 127.90 466.93 131.00 465.93 C132.38 465.48 135.30 464.43 137.50 463.60 C139.70 462.77 143.75 462.06 146.50 462.03 C149.25 462.00 153.71 461.31 156.41 460.49 C162.00 458.79 173.35 458.60 180.00 460.10 C182.47 460.65 190.12 461.53 197.00 462.04 C203.88 462.56 212.43 463.64 216.00 464.45 C219.57 465.26 228.35 466.40 235.50 466.99 C242.65 467.58 253.22 468.54 259.00 469.12 C271.67 470.40 315.79 469.60 321.50 467.98 C323.73 467.35 336.81 466.61 351.00 466.31 C377.88 465.74 386.66 466.39 402.00 470.08 C406.68 471.20 413.11 472.73 416.30 473.47 C419.48 474.22 422.67 475.31 423.37 475.89 C424.08 476.48 427.64 477.38 431.29 477.90 C434.94 478.42 438.51 479.20 439.22 479.64 C441.90 481.33 450.14 481.85 469.00 481.55 C480.58 481.37 489.68 480.77 491.39 480.09 Z M570.69 435.27 C570.44 434.30 570.22 434.85 570.19 436.50 C570.17 438.15 570.38 438.95 570.66 438.27 C570.93 437.59 570.95 436.24 570.69 435.27 Z M574.66 427.75 C574.38 427.06 574.16 427.62 574.16 429.00 C574.16 430.38 574.38 430.94 574.66 430.25 C574.94 429.56 574.94 428.44 574.66 427.75 Z M579.00 417.83 C579.00 414.19 578.56 414.32 577.62 418.25 C577.23 419.88 577.38 421.00 577.98 421.00 C578.54 421.00 579.00 419.57 579.00 417.83 Z M353.60 393.98 C341.90 393.12 313.69 389.25 299.00 386.48 C264.73 380.04 225.87 368.40 195.34 355.42 L187.19 351.96 L178.30 355.87 C157.64 364.96 134.05 369.21 115.81 367.14 C104.21 365.82 100.64 364.79 94.82 361.10 C86.66 355.92 86.00 347.98 93.00 339.12 C99.54 330.84 116.63 320.19 130.84 315.53 C133.78 314.57 135.80 313.46 135.34 313.07 C134.88 312.68 130.22 310.43 125.00 308.08 C106.08 299.54 94.39 290.36 89.87 280.50 C81.14 261.41 104.60 257.60 148.25 271.02 C153.89 272.76 162.55 275.44 167.50 276.99 C172.45 278.55 181.55 280.82 187.72 282.04 L198.94 284.27 L205.22 281.94 C208.67 280.67 217.35 276.83 224.50 273.42 C267.29 253.01 284.80 250.00 360.68 250.00 C431.24 250.00 471.93 254.06 507.50 264.64 C526.89 270.40 540.68 277.41 547.42 284.90 C548.47 286.07 551.05 287.30 553.15 287.64 C557.56 288.35 559.25 289.98 559.25 293.54 C559.25 297.07 556.56 299.67 551.13 301.38 C543.70 303.72 539.91 304.09 523.14 304.14 C514.43 304.17 505.77 304.52 503.90 304.91 L500.50 305.63 L504.50 307.04 C509.24 308.70 527.09 308.93 546.90 307.59 C562.43 306.54 563.00 306.81 563.00 315.18 C563.00 332.70 543.56 354.17 514.50 368.75 C490.20 380.93 470.50 386.76 435.50 392.11 C420.46 394.41 373.89 395.47 353.60 393.98 Z M440.03 385.70 C476.28 379.69 509.60 366.82 533.33 349.66 C545.51 340.85 555.10 326.85 556.64 315.61 L557.30 310.77 L554.40 311.38 C547.94 312.71 527.54 315.00 522.20 314.98 C513.14 314.96 503.09 312.42 499.05 309.15 C494.65 305.59 494.60 304.14 498.80 301.69 C501.58 300.06 505.09 299.64 521.30 298.97 C534.12 298.44 542.23 297.64 545.71 296.56 C553.63 294.11 553.42 292.72 545.00 291.78 C543.16 291.57 542.49 290.90 542.47 289.23 C542.42 284.56 521.70 274.68 500.26 269.11 C485.28 265.21 451.70 259.42 434.55 257.78 C416.19 256.02 313.64 256.04 298.03 257.80 C272.68 260.67 258.02 264.97 232.50 277.04 C220.59 282.67 209.97 287.26 203.25 289.66 C199.16 291.13 198.41 291.05 183.75 287.52 C166.73 283.43 147.33 278.13 136.00 274.47 C127.15 271.62 112.73 269.00 105.84 269.00 C103.14 269.00 99.33 269.67 97.36 270.49 C94.17 271.83 93.85 272.28 94.46 274.70 C95.59 279.20 100.21 285.18 106.43 290.19 C113.03 295.51 134.94 306.69 145.23 309.99 C148.94 311.18 152.99 312.99 154.23 314.01 C156.30 315.71 156.36 316.01 154.92 317.48 C153.61 318.81 152.57 318.91 148.84 318.08 C143.47 316.87 139.77 317.71 128.79 322.63 C120.45 326.36 110.26 332.26 102.82 337.66 C96.81 342.03 93.39 348.57 95.12 352.37 C97.87 358.41 110.90 361.51 130.25 360.72 C148.88 359.96 167.58 354.89 185.72 345.66 C192.27 342.32 193.00 342.34 193.00 345.83 C193.00 348.49 193.63 348.91 203.33 352.79 C241.77 368.15 289.12 379.83 332.00 384.53 C368.05 388.48 373.96 388.84 399.00 388.56 C420.83 388.32 426.74 387.91 440.03 385.70 Z M410.57 380.43 C407.11 376.97 407.24 371.58 410.84 369.19 L413.18 367.64 L412.86 372.07 C412.57 376.04 412.77 376.53 414.83 376.83 C417.58 377.22 418.85 379.85 416.90 381.09 C414.77 382.43 412.32 382.17 410.57 380.43 Z M345.24 370.35 C341.40 368.45 340.27 365.17 342.02 360.96 C343.38 357.67 348.36 353.00 350.52 353.00 C353.06 353.00 352.88 354.59 349.80 359.33 C348.11 361.93 347.04 364.37 347.42 364.75 C347.80 365.13 351.35 365.61 355.30 365.82 C359.26 366.03 362.90 366.58 363.38 367.03 C363.88 367.50 362.77 368.78 360.88 369.93 C356.78 372.43 349.85 372.62 345.24 370.35 Z M473.01 357.75 C473.01 356.55 474.29 354.38 478.44 348.50 L480.39 345.76 L477.44 343.66 C472.17 339.91 468.00 335.25 468.00 333.10 C468.00 329.60 471.43 330.61 477.91 336.01 L483.93 341.01 L489.11 335.99 C494.21 331.04 497.87 329.18 499.94 330.46 C502.12 331.81 500.85 334.45 495.77 339.12 C489.77 344.64 489.86 344.95 498.56 348.32 C503.56 350.26 504.50 351.01 504.50 353.06 C504.50 356.74 501.23 356.63 492.62 352.65 L485.11 349.18 L483.68 351.34 C480.80 355.67 477.05 359.00 475.05 359.00 C473.92 359.00 473.00 358.44 473.01 357.75 Z M276.25 355.05 C273.21 353.65 272.00 352.50 272.00 350.98 C272.00 346.49 276.29 341.60 281.23 340.48 C286.27 339.32 286.51 341.06 281.90 345.32 C278.69 348.28 277.93 349.49 279.02 349.88 C279.83 350.18 282.52 351.11 285.00 351.96 C287.65 352.87 289.50 354.12 289.50 355.00 C289.50 357.37 281.36 357.40 276.25 355.05 Z M416.72 352.25 C414.20 349.46 410.14 340.00 408.90 334.00 C408.27 330.96 407.96 324.24 408.22 318.95 C408.58 311.33 409.23 308.18 411.39 303.47 C414.11 297.53 416.61 294.00 418.12 294.00 C418.57 294.00 419.42 294.92 420.02 296.04 C420.91 297.70 420.49 299.44 417.81 305.25 C414.78 311.84 414.52 313.18 414.60 321.96 C414.66 329.37 415.28 333.36 417.34 339.80 C421.10 351.52 420.83 356.79 416.72 352.25 Z M220.11 347.60 C215.89 345.26 213.72 338.49 215.62 333.54 C217.19 329.46 229.35 327.34 233.56 330.42 C236.24 332.38 235.12 333.09 227.98 333.93 C224.46 334.34 221.44 335.26 220.91 336.08 C219.20 338.71 220.44 341.47 224.25 343.50 C228.23 345.62 229.01 347.40 226.42 348.39 C224.14 349.27 222.81 349.10 220.11 347.60 Z M392.13 344.44 C388.44 339.75 387.50 335.07 387.50 321.50 C387.51 310.99 387.84 307.88 389.26 305.28 C390.96 302.18 393.71 300.00 395.93 300.00 C397.60 300.00 397.19 304.45 395.00 310.00 C392.37 316.68 392.36 326.79 394.99 335.16 C398.37 345.95 396.95 350.56 392.13 344.44 Z M153.75 343.37 C152.79 343.09 152.00 342.48 152.00 342.03 C152.00 340.79 154.72 339.90 163.50 338.26 C174.63 336.18 178.38 336.13 178.77 338.08 C179.25 340.51 171.62 343.16 163.00 343.55 C158.88 343.73 154.71 343.65 153.75 343.37 Z M303.58 335.03 C289.95 332.08 284.19 329.17 281.40 323.80 C277.30 315.91 280.84 311.23 296.45 303.91 C302.79 300.94 307.99 298.19 307.99 297.82 C308.00 297.44 307.13 296.86 306.06 296.52 C305.00 296.18 302.75 294.34 301.06 292.42 C297.29 288.12 296.76 281.24 299.95 278.05 C309.06 268.94 340.02 277.88 352.08 293.10 C353.82 295.30 355.00 297.34 354.70 297.64 C353.75 298.58 350.32 297.03 346.34 293.87 C337.22 286.62 320.98 280.00 312.32 280.00 C307.11 280.00 304.00 281.90 304.00 285.09 C304.00 288.77 307.49 291.40 315.99 294.14 C324.11 296.75 327.56 299.09 326.69 301.37 C325.92 303.38 323.01 303.45 318.51 301.57 C315.13 300.16 314.87 300.24 301.95 306.79 C286.46 314.64 284.40 316.94 288.49 321.80 C294.29 328.70 311.52 331.96 333.78 330.35 C344.52 329.58 346.02 329.66 345.78 330.98 C345.63 331.82 343.70 333.40 341.50 334.49 C335.65 337.40 315.86 337.68 303.58 335.03 Z M157.75 331.31 C154.03 330.34 156.11 328.24 161.93 327.09 C171.46 325.22 176.65 327.58 169.53 330.55 C166.18 331.95 161.38 332.26 157.75 331.31 Z M330.00 315.87 C327.99 315.07 327.79 314.71 329.00 314.05 C332.00 312.40 338.86 311.88 342.96 312.99 C346.44 313.93 346.95 314.36 345.95 315.56 C344.55 317.25 333.95 317.46 330.00 315.87 Z M245.37 307.08 C240.87 304.34 239.00 301.17 239.00 296.28 C239.00 289.72 243.71 286.00 252.02 286.00 C256.51 286.00 261.21 287.85 260.70 289.42 C260.50 290.02 257.53 290.77 254.09 291.10 C246.26 291.86 242.98 294.46 244.80 298.46 C245.45 299.88 247.96 301.98 250.48 303.20 C255.49 305.63 255.92 306.44 253.07 307.96 C250.34 309.42 248.94 309.26 245.37 307.08 Z M161.65 306.61 C158.99 305.87 155.62 304.08 154.18 302.63 L151.55 300.00 L154.02 300.02 C155.39 300.02 159.20 300.68 162.50 301.48 C165.80 302.28 169.94 302.94 171.69 302.96 C175.01 303.00 176.86 304.55 175.36 306.04 C173.74 307.65 166.51 307.95 161.65 306.61 Z M347.00 305.00 C344.52 303.96 341.32 303.09 339.87 303.06 C336.48 302.98 333.97 300.27 336.06 298.94 C339.94 296.48 351.69 299.68 353.88 303.78 C355.84 307.44 353.71 307.82 347.00 305.00 Z M171.72 298.91 C167.10 297.82 162.80 295.66 161.05 293.57 C159.94 292.22 160.09 291.98 162.13 291.89 C166.42 291.70 170.47 292.19 172.17 293.09 C174.78 294.49 177.00 297.00 177.00 298.57 C177.00 300.16 177.02 300.16 171.72 298.91 Z M503.00 289.60 C503.00 288.61 505.48 287.85 511.56 286.99 C516.26 286.32 520.42 286.09 520.81 286.47 C521.19 286.86 520.44 288.03 519.14 289.09 C516.15 291.51 503.00 291.93 503.00 289.60 Z M364.03 281.81 C358.64 272.98 365.92 263.24 375.07 267.03 C378.83 268.59 378.83 270.00 375.06 270.00 C370.79 270.00 366.52 273.95 367.32 277.16 C367.67 278.53 369.12 280.19 370.55 280.84 C373.92 282.37 373.22 284.41 369.20 284.81 C366.55 285.07 365.72 284.60 364.03 281.81 Z M408.20 278.80 C406.54 277.14 406.70 271.49 408.49 268.02 C410.33 264.46 413.31 263.40 416.05 265.32 C418.11 266.76 418.10 266.79 415.18 268.87 C411.13 271.76 410.46 274.80 413.58 276.22 C416.38 277.50 416.66 278.53 414.42 279.39 C411.94 280.34 409.51 280.11 408.20 278.80 Z M71.67 240.33 C70.49 239.16 70.95 232.51 72.35 230.47 C73.09 229.39 74.03 227.15 74.43 225.50 C75.02 223.07 84.50 203.08 87.94 197.00 C88.40 196.18 89.28 194.38 89.89 193.00 C91.14 190.14 91.98 188.74 97.22 180.72 C99.30 177.54 101.00 174.65 101.00 174.30 C101.00 173.95 101.65 172.96 102.45 172.08 C107.15 166.96 108.00 165.94 108.00 165.39 C108.00 164.24 119.76 150.55 131.84 137.64 C136.23 132.95 139.44 131.84 141.80 134.20 C143.88 136.28 143.18 137.58 136.15 144.78 C132.37 148.64 129.01 152.52 128.68 153.40 C128.34 154.28 127.60 155.00 127.03 155.00 C126.46 155.00 126.00 155.64 126.00 156.43 C126.00 157.22 125.15 158.14 124.11 158.47 C122.35 159.02 120.52 162.85 121.53 163.86 C122.12 164.45 126.52 159.69 127.32 157.61 C127.66 156.72 128.63 156.00 129.47 156.00 C130.31 156.00 131.00 155.31 131.00 154.48 C131.00 152.87 134.80 151.00 138.07 151.00 C142.02 151.00 140.02 155.45 130.99 166.71 C126.04 172.88 122.00 178.32 122.00 178.81 C122.00 179.29 121.10 180.50 120.00 181.50 C118.90 182.50 118.00 183.86 118.00 184.53 C118.00 185.20 117.28 186.35 116.40 187.09 C115.51 187.82 114.36 189.34 113.83 190.46 C112.36 193.56 109.74 198.01 106.46 203.00 C104.83 205.47 103.02 208.83 102.43 210.44 C101.84 212.06 100.12 214.31 98.60 215.44 C95.88 217.47 95.83 217.48 94.42 215.56 C92.30 212.66 92.70 208.54 95.50 204.40 C96.88 202.38 98.00 200.15 98.00 199.44 C98.00 198.74 98.42 198.02 98.93 197.83 C99.44 197.65 100.18 196.20 100.57 194.60 C101.09 192.53 100.96 191.90 100.15 192.41 C99.52 192.80 99.00 193.70 99.00 194.40 C99.00 195.11 98.10 196.50 97.00 197.50 C95.90 198.50 95.00 200.38 95.00 201.69 C95.00 202.99 94.35 204.31 93.56 204.61 C92.77 204.92 91.81 206.59 91.43 208.33 C91.05 210.08 89.90 212.57 88.87 213.88 C87.84 215.20 87.00 216.88 87.00 217.63 C87.00 218.38 85.42 222.02 83.50 225.71 C81.58 229.40 80.00 233.42 80.00 234.64 C80.00 237.87 73.58 242.25 71.67 240.33 Z M104.00 191.00 C104.00 190.45 104.83 189.17 105.86 188.14 C107.85 186.15 109.35 181.68 108.36 180.69 C107.56 179.89 103.20 186.37 102.40 189.53 C102.02 191.04 102.21 192.00 102.89 192.00 C103.50 192.00 104.00 191.55 104.00 191.00 Z M115.50 173.72 C119.78 167.06 120.67 165.00 119.26 165.00 C118.23 165.00 114.00 170.49 114.00 171.84 C114.00 172.34 113.14 173.37 112.09 174.13 C109.68 175.86 108.32 180.01 110.18 179.97 C110.91 179.95 113.30 177.14 115.50 173.72 Z M486.97 115.38 C504.91 113.84 510.07 112.27 515.25 106.79 C517.96 103.92 518.93 98.87 517.23 96.45 C512.52 89.69 498.02 86.55 464.50 85.01 C451.85 84.43 432.95 83.52 422.50 82.98 C357.32 79.65 190.98 78.30 169.00 80.92 C160.94 81.88 156.79 82.85 155.12 84.15 C153.80 85.17 152.20 86.00 151.55 86.00 C149.52 86.00 145.06 91.43 144.41 94.72 C143.86 97.46 144.30 98.37 147.88 101.88 C150.65 104.60 153.20 106.10 155.74 106.51 C157.81 106.84 161.75 107.73 164.50 108.48 C170.56 110.15 223.49 112.76 278.50 114.10 C299.95 114.63 328.98 115.44 343.00 115.91 C385.14 117.32 468.08 117.02 486.97 115.38 Z"/></svg>